<svg xmlns="http://www.w3.org/2000/svg" xmlns:xlink="http://www.w3.org/1999/xlink" viewBox="0 0 512 512"><defs><linearGradient id="linear-gradient" y1="222.62" x2="445.24" y2="222.62" gradientUnits="userSpaceOnUse"><stop offset="0" stop-color="#fff"/><stop offset="1" stop-color="#d0d3d4"/></linearGradient><linearGradient id="linear-gradient-2" x1="11.13" y1="222.62" x2="434.11" y2="222.62" gradientUnits="userSpaceOnUse"><stop offset="0" stop-color="#d0d3d4"/><stop offset="1" stop-color="#fff"/></linearGradient></defs><title>band-Aid-other</title><g style="isolation:isolate"><g id="Layer_1" data-name="Layer 1"><g style="mix-blend-mode:multiply"><path d="M289.38,512C166.63,512,66.76,412.13,66.76,289.38S166.63,66.76,289.38,66.76,512,166.63,512,289.38,412.13,512,289.38,512Z" fill="#fff" opacity="0"/><path d="M286.2,508.69c-122.68,0-222.49-99.81-222.49-222.49S163.52,63.71,286.2,63.71,508.69,163.52,508.69,286.2,408.88,508.69,286.2,508.69Z" fill="#f9f9f9" opacity="0.05"/><path d="M283,505.38C160.41,505.38,60.67,405.63,60.67,283S160.41,60.67,283,60.67,505.38,160.41,505.38,283,405.63,505.38,283,505.38Z" fill="#f3f3f3" opacity="0.1"/><path d="M279.84,502.07c-122.53,0-222.22-99.69-222.22-222.22S157.31,57.62,279.84,57.62s222.22,99.69,222.22,222.22S402.37,502.07,279.84,502.07Z" fill="#ededee" opacity="0.14"/><path d="M276.66,498.75c-122.46,0-222.09-99.63-222.09-222.09S154.2,54.57,276.66,54.57,498.75,154.2,498.75,276.66,399.12,498.75,276.66,498.75Z" fill="#e7e7e8" opacity="0.19"/><path d="M273.48,495.44c-122.39,0-222-99.57-222-222s99.57-222,222-222,222,99.57,222,222S395.87,495.44,273.48,495.44Z" fill="#e1e1e2" opacity="0.24"/><path d="M270.31,492.13C148,492.13,48.48,392.62,48.48,270.31S148,48.48,270.31,48.48,492.13,148,492.13,270.31,392.62,492.13,270.31,492.13Z" fill="#dbdbdc" opacity="0.29"/><path d="M267.13,488.82c-122.24,0-221.69-99.45-221.69-221.69S144.88,45.43,267.13,45.43s221.69,99.45,221.69,221.69S389.37,488.82,267.13,488.82Z" fill="#d5d5d6" opacity="0.33"/><path d="M263.95,485.51c-122.17,0-221.56-99.39-221.56-221.56S141.78,42.39,263.95,42.39s221.56,99.39,221.56,221.56S386.11,485.51,263.95,485.51Z" fill="#cfcfd1" opacity="0.38"/><path d="M260.77,482.2c-122.1,0-221.43-99.33-221.43-221.43S138.67,39.34,260.77,39.34,482.2,138.67,482.2,260.77,382.86,482.2,260.77,482.2Z" fill="#c9c9cb" opacity="0.43"/><path d="M257.59,478.89c-122,0-221.3-99.27-221.3-221.3s99.27-221.3,221.3-221.3,221.3,99.27,221.3,221.3S379.61,478.89,257.59,478.89Z" fill="#c3c3c5" opacity="0.48"/><path d="M254.41,475.57c-122,0-221.16-99.21-221.16-221.16S132.46,33.25,254.41,33.25s221.16,99.21,221.16,221.16S376.36,475.57,254.41,475.57Z" fill="#bcbebf" opacity="0.52"/><path d="M251.23,472.26c-121.88,0-221-99.15-221-221s99.15-221,221-221,221,99.15,221,221S373.11,472.26,251.23,472.26Z" fill="#b6b8b9" opacity="0.57"/><path d="M248.05,469c-121.8,0-220.9-99.09-220.9-220.9s99.09-220.9,220.9-220.9S469,126.25,469,248.05,369.85,469,248.05,469Z" fill="#b0b2b3" opacity="0.62"/><path d="M244.87,465.64c-121.73,0-220.77-99-220.77-220.77s99-220.77,220.77-220.77,220.77,99,220.77,220.77S366.6,465.64,244.87,465.64Z" fill="#aaacae" opacity="0.67"/><path d="M241.69,462.33c-121.66,0-220.63-99-220.63-220.63S120,21.06,241.69,21.06s220.63,99,220.63,220.63S363.35,462.33,241.69,462.33Z" fill="#a4a6a8" opacity="0.71"/><path d="M238.52,459C116.93,459,18,360.1,18,238.52S116.93,18,238.52,18,459,116.93,459,238.52,360.1,459,238.52,459Z" fill="#9ea0a2" opacity="0.76"/><path d="M235.34,455.71C113.82,455.71,15,356.85,15,235.34S113.82,15,235.34,15,455.7,113.83,455.7,235.34,356.85,455.71,235.34,455.71Z" fill="#989a9c" opacity="0.81"/><path d="M232.16,452.39c-121.44,0-220.24-98.8-220.24-220.24S110.72,11.92,232.16,11.92s220.24,98.8,220.24,220.24S353.59,452.39,232.16,452.39Z" fill="#929496" opacity="0.86"/><path d="M229,449.08c-121.37,0-220.1-98.74-220.1-220.1S107.61,8.88,229,8.88s220.1,98.74,220.1,220.1S350.34,449.08,229,449.08Z" fill="#8c8e91" opacity="0.9"/><path d="M225.8,445.77c-121.29,0-220-98.68-220-220s98.68-220,220-220,220,98.68,220,220S347.09,445.77,225.8,445.77Z" fill="#86888b" opacity="0.95"/><path d="M222.62,442.46C101.4,442.46,2.78,343.84,2.78,222.62S101.4,2.78,222.62,2.78,442.46,101.4,442.46,222.62,343.84,442.46,222.62,442.46Z" fill="#808285"/></g><path d="M222.62,445.24C99.87,445.24,0,345.37,0,222.62S99.87,0,222.62,0,445.24,99.87,445.24,222.62,345.37,445.24,222.62,445.24Z" fill="url(#linear-gradient)"/><path d="M222.62,434.11C106,434.11,11.13,339.24,11.13,222.62S106,11.13,222.62,11.13,434.11,106,434.11,222.62,339.24,434.11,222.62,434.11Z" fill="url(#linear-gradient-2)"/><path d="M164.85,234.77h0l56.45,56.74-17.39,17.67a40,40,0,0,1-56.45-56.74Z" fill="#fff" fill-rule="evenodd"/><path d="M291.73,221.37h0L235,164.92l17.68-17.68A40.12,40.12,0,1,1,309.4,204Z" fill="#fff" fill-rule="evenodd"/><path d="M309.4,252.45,203.91,147.24c-15.4-15.39-40.76-15.39-56.45,0a40.1,40.1,0,0,0,0,56.74L252.66,309.19a40.08,40.08,0,0,0,56.74,0A40.61,40.61,0,0,0,309.4,252.45Zm-109.77-83c2.28-2.56,6.56-2.56,9.41,0a6.72,6.72,0,0,1,0,9.41c-2.85,2.85-7.13,2.85-9.41,0A6.72,6.72,0,0,1,199.63,169.48Zm-44.76-5.41a6.25,6.25,0,0,1,0-9.41,6.65,6.65,0,1,1,0,9.41Zm7.41,22.24a6.72,6.72,0,0,1,0-9.41,7.33,7.33,0,0,1,9.41,0,6.66,6.66,0,1,1-9.41,9.41Zm16.83,22.52a6.65,6.65,0,1,1,0-9.41A6.72,6.72,0,0,1,179.1,208.83Zm-2-37.36a7.34,7.34,0,0,1,0-9.41,6.66,6.66,0,1,1,0,9.41Zm7.42,22.24c-2.56-2.28-2.56-6.55,0-9.4,2.56-2.58,7.12-2.58,9.4,0,2.57,2.85,2.57,7.12,0,9.4A6.23,6.23,0,0,1,184.52,193.71Zm29.66,61.59-13.13-12.83a29.34,29.34,0,1,1,41.63-41.34L255.52,214a29.23,29.23,0,1,1-41.34,41.34Zm43,31.36c-2.85,2.85-6.84,2.85-9.41,0a6.37,6.37,0,0,1,0-9.12,6.72,6.72,0,0,1,9.41,0A6.36,6.36,0,0,1,257.23,286.66Zm5.42-14.82a6.66,6.66,0,0,1,9.41-9.41,6.66,6.66,0,1,1-9.41,9.41Zm16.82,22.52c-2.28,2.57-6.84,2.57-9.4,0s-2.56-7.13,0-9.41c2.56-2.57,7.12-2.57,9.4,0C282,287.23,282,291.8,279.46,294.36ZM277.75,257a6.72,6.72,0,0,1,0-9.41,6.38,6.38,0,0,1,9.13,0,6.24,6.24,0,0,1,0,9.41A6.37,6.37,0,0,1,277.75,257Zm7.42,22.24c-2.56-2.28-2.56-6.83,0-9.4,2.28-2.57,6.85-2.57,9.41,0s2.56,7.13,0,9.4C292,281.82,287.45,281.82,285.17,279.25ZM302,301.78a7.33,7.33,0,0,1-9.41,0,6.65,6.65,0,1,1,9.41-9.41A7.33,7.33,0,0,1,302,301.78Z" fill="#fff" fill-rule="evenodd"/><path d="M159.15,229.07h0l56.45,56.74L198.2,303.48a40,40,0,1,1-56.45-56.74Z" fill="#88868a" fill-rule="evenodd"/><path d="M286,215.67h0l-56.75-56.45L247,141.54a40.12,40.12,0,1,1,56.74,56.74Z" fill="#88868a" fill-rule="evenodd"/><path d="M303.7,246.75,198.2,141.54c-15.4-15.39-40.76-15.39-56.45,0a40.1,40.1,0,0,0,0,56.74L247,303.48a40.08,40.08,0,0,0,56.74,0A40.61,40.61,0,0,0,303.7,246.75Zm-109.77-83c2.28-2.56,6.56-2.56,9.41,0a6.72,6.72,0,0,1,0,9.41c-2.85,2.85-7.13,2.85-9.41,0A6.72,6.72,0,0,1,193.93,163.78Zm-44.76-5.41a6.25,6.25,0,0,1,0-9.41,6.65,6.65,0,1,1,0,9.41Zm7.41,22.24a6.72,6.72,0,0,1,0-9.41,7.33,7.33,0,0,1,9.41,0,6.66,6.66,0,0,1-9.41,9.41Zm16.83,22.52a6.65,6.65,0,1,1,0-9.41A6.72,6.72,0,0,1,173.4,203.13Zm-2-37.36a7.34,7.34,0,0,1,0-9.41,6.66,6.66,0,1,1,0,9.41ZM178.82,188c-2.56-2.28-2.56-6.55,0-9.4,2.56-2.58,7.12-2.58,9.4,0,2.57,2.85,2.57,7.12,0,9.4A6.23,6.23,0,0,1,178.82,188Zm29.66,61.59-13.13-12.83A29.34,29.34,0,0,1,237,195.42l12.83,12.83a29.23,29.23,0,0,1-41.34,41.34Zm43,31.36c-2.85,2.85-6.84,2.85-9.41,0a6.37,6.37,0,0,1,0-9.12,6.72,6.72,0,0,1,9.41,0A6.36,6.36,0,0,1,251.52,281Zm5.42-14.82a6.66,6.66,0,0,1,9.41-9.41,6.66,6.66,0,1,1-9.41,9.41Zm16.82,22.52c-2.28,2.57-6.84,2.57-9.4,0s-2.56-7.13,0-9.41c2.56-2.57,7.12-2.57,9.4,0C276.33,281.53,276.33,286.1,273.76,288.66ZM272,251.31a6.72,6.72,0,0,1,0-9.41,6.38,6.38,0,0,1,9.13,0,6.24,6.24,0,0,1,0,9.41A6.37,6.37,0,0,1,272,251.31Zm7.42,22.24c-2.56-2.28-2.56-6.83,0-9.4,2.28-2.57,6.85-2.57,9.41,0s2.56,7.13,0,9.4C286.31,276.12,281.74,276.12,279.47,273.54Zm16.83,22.53a7.33,7.33,0,0,1-9.41,0,6.65,6.65,0,0,1,9.41-9.41A7.33,7.33,0,0,1,296.29,296.08Z" fill="#88868a" fill-rule="evenodd"/></g></g></svg>